<?xml version="1.0" encoding="UTF-8"?>
<svg xmlns="http://www.w3.org/2000/svg" width="64" height="64" viewBox="0 0 64 64" fill="none">
  <defs>
    <linearGradient id="grad" x1="0" y1="0" x2="1" y2="1">
      <stop offset="0%" stop-color="#f97316" />
      <stop offset="100%" stop-color="#ea580c" />
    </linearGradient>
  </defs>

  <!-- Background rounded square with orange gradient -->
  <rect width="64" height="64" rx="12" fill="url(#grad)" />

  <!-- Centered FastForward icon (outlined, not filled) -->
  <g transform="translate(8 8) scale(2)">
    <path
      d="M3 8.689c0-.864.933-1.406 1.683-.977l7.108 4.061a1.125 1.125 0 0 1 0 1.954l-7.108 4.061A1.125 1.125 0 0 1 3 16.811V8.69ZM12.75 8.689c0-.864.933-1.406 1.683-.977l7.108 4.061a1.125 1.125 0 0 1 0 1.954l-7.108 4.061a1.125 1.125 0 0 1-1.683-.977V8.69Z"
      stroke="white"
      stroke-width="1.5"
      stroke-linecap="round"
      stroke-linejoin="round"
      fill="none"
    />
  </g>
</svg> 